<?xml version="1.0" encoding="UTF-8" standalone="no"?>
<!-- Created with Inkscape (http://www.inkscape.org/) -->

<svg
   xmlns:osb="http://www.openswatchbook.org/uri/2009/osb"
   xmlns:dc="http://purl.org/dc/elements/1.1/"
   xmlns:cc="http://creativecommons.org/ns#"
   xmlns:rdf="http://www.w3.org/1999/02/22-rdf-syntax-ns#"
   xmlns:svg="http://www.w3.org/2000/svg"
   xmlns="http://www.w3.org/2000/svg"
   xmlns:xlink="http://www.w3.org/1999/xlink"
   xmlns:sodipodi="http://sodipodi.sourceforge.net/DTD/sodipodi-0.dtd"
   xmlns:inkscape="http://www.inkscape.org/namespaces/inkscape"
   width="192"
   height="192"
   id="svg2"
   version="1.1"
   inkscape:version="0.48.3.1 r9886"
   sodipodi:docname="ic_action_guess_category.svg"
   inkscape:export-filename="/home/chris/Programmieren/workspace/Ledger/res/drawable-mdpi/ic_action_guess_category.png"
   inkscape:export-xdpi="20.620001"
   inkscape:export-ydpi="20.620001">
  <script
     xlink:href=""
     id="script2985" />
  <defs
     id="defs4">
    <linearGradient
       id="linearGradient7366"
       osb:paint="solid">
      <stop
         style="stop-color:#333333;stop-opacity:1;"
         offset="0"
         id="stop7368" />
    </linearGradient>
    <linearGradient
       id="linearGradient5884"
       osb:paint="solid">
      <stop
         style="stop-color:#333333;stop-opacity:1;"
         offset="0"
         id="stop5886" />
    </linearGradient>
    <marker
       inkscape:stockid="Arrow2Lend"
       orient="auto"
       refY="0.0"
       refX="0.0"
       id="Arrow2Lend"
       style="overflow:visible;">
      <path
         id="path3973"
         style="fill-rule:evenodd;stroke-width:0.62500000;stroke-linejoin:round;"
         d="M 8.7185878,4.0337352 L -2.2072895,0.016013256 L 8.7185884,-4.0017078 C 6.9730900,-1.6296469 6.9831476,1.6157441 8.7185878,4.0337352 z "
         transform="scale(1.1) rotate(180) translate(1,0)" />
    </marker>
    <marker
       inkscape:stockid="Arrow1Lend"
       orient="auto"
       refY="0.0"
       refX="0.0"
       id="Arrow1Lend"
       style="overflow:visible;">
      <path
         id="path3955"
         d="M 0.0,0.0 L 5.0,-5.0 L -12.5,0.0 L 5.0,5.0 L 0.0,0.0 z "
         style="fill-rule:evenodd;stroke:#000000;stroke-width:1.0pt;"
         transform="scale(0.8) rotate(180) translate(12.5,0)" />
    </marker>
    <marker
       inkscape:stockid="Arrow1Mend"
       orient="auto"
       refY="0.0"
       refX="0.0"
       id="Arrow1Mend"
       style="overflow:visible;">
      <path
         id="path3961"
         d="M 0.0,0.0 L 5.0,-5.0 L -12.5,0.0 L 5.0,5.0 L 0.0,0.0 z "
         style="fill-rule:evenodd;stroke:#000000;stroke-width:1.0pt;"
         transform="scale(0.4) rotate(180) translate(10,0)" />
    </marker>
  </defs>
  <sodipodi:namedview
     id="base"
     pagecolor="#ffffff"
     bordercolor="#666666"
     borderopacity="1.0"
     inkscape:pageopacity="0.0"
     inkscape:pageshadow="2"
     inkscape:zoom="0.24748737"
     inkscape:cx="-432.35781"
     inkscape:cy="-512.96806"
     inkscape:document-units="px"
     inkscape:current-layer="layer1"
     showgrid="false"
     inkscape:window-width="1215"
     inkscape:window-height="1000"
     inkscape:window-x="65"
     inkscape:window-y="24"
     inkscape:window-maximized="1" />
  <metadata
     id="metadata7">
    <rdf:RDF>
      <cc:Work
         rdf:about="">
        <dc:format>image/svg+xml</dc:format>
        <dc:type
           rdf:resource="http://purl.org/dc/dcmitype/StillImage" />
        <dc:title></dc:title>
      </cc:Work>
    </rdf:RDF>
  </metadata>
  <g
     inkscape:label="Ebene 1"
     inkscape:groupmode="layer"
     id="layer1"
     transform="translate(0,-860.36215)">
    <rect
       style="fill:none;fill-opacity:0.59999999999999998;stroke:none;stroke-width:1.02370048000000002;stroke-linecap:round;stroke-linejoin:round;stroke-miterlimit:4;stroke-opacity:0.59999999999999998;stroke-dasharray:none"
       id="rect2987"
       width="143.02945"
       height="142.92024"
       x="24.51185"
       y="884.93005" />
    <path
       style="fill:#333333;fill-opacity:0.6;stroke:#333333;stroke-width:0.65504783;stroke-linecap:round;stroke-linejoin:round;stroke-miterlimit:4;stroke-opacity:0.6;stroke-dasharray:none"
       d="m 100.90626,898.12091 -10.000005,0.0625 0.1875,27.125 -3.46875,-1.875 c -4.61576,-2.49723 -8.39705,-4.4187 -8.40625,-4.28125 -0.0084,0.13745 3.70136,7.32326 8.25,15.96875 4.548671,8.64549 8.41836,15.63464 8.59375,15.53125 0.304051,-0.17921 16.718755,-31.16847 16.718755,-31.5625 0,-0.10407 -3.75924,1.84652 -8.375,4.34375 l -3.3125,1.78125 z"
       id="path7033"
       inkscape:connector-curvature="0"
       sodipodi:nodetypes="cccccscsccc" />
    <rect
       style="fill:#333333;fill-opacity:0.6;stroke:#333333;stroke-width:1;stroke-linecap:butt;stroke-linejoin:round;stroke-miterlimit:4;stroke-opacity:0.6;stroke-dasharray:none"
       id="rect7301"
       width="41.179111"
       height="41.179111"
       x="-649.42871"
       y="744.01416"
       transform="matrix(0.70710678,-0.70710678,0.70710678,0.70710678,0,0)" />
    <path
       style="fill:#333333;fill-opacity:0.6;stroke:#333333;stroke-width:0.65504783;stroke-linecap:round;stroke-linejoin:round;stroke-miterlimit:4;stroke-opacity:0.6;stroke-dasharray:none"
       d="m 131.70425,980.40663 0.0625,10.00001 10.69643,-0.1875 -1.875,3.46875 c -2.49723,4.61576 -4.4187,8.39701 -4.28125,8.40621 0.13745,0.01 7.32326,-3.70132 15.96875,-8.24996 8.64549,-4.54867 15.63464,-8.41836 15.53125,-8.59375 -0.17921,-0.30405 -31.16847,-16.71876 -31.5625,-16.71876 -0.10407,0 1.84652,3.75924 4.34375,8.375 l 1.78125,3.3125 z"
       id="path7033-1"
       inkscape:connector-curvature="0"
       sodipodi:nodetypes="cccccscsccc" />
    <path
       style="fill:#333333;fill-opacity:0.6;stroke:#333333;stroke-width:0.65504783;stroke-linecap:round;stroke-linejoin:round;stroke-miterlimit:4;stroke-opacity:0.6;stroke-dasharray:none"
       d="m 60.295747,990.21915 -0.0625,-10.00001 -10.69643,0.1875 1.875,-3.46875 c 2.49723,-4.61576 4.4187,-8.39705 4.28125,-8.40625 -0.13745,-0.008 -7.32326,3.70136 -15.96875,8.25 -8.64549,4.54867 -15.63464,8.41836 -15.53125,8.59375 0.17921,0.30405 31.16847,16.71871 31.5625,16.71871 0.10407,0 -1.84652,-3.75919 -4.34375,-8.37495 l -1.78125,-3.3125 z"
       id="path7033-1-9"
       inkscape:connector-curvature="0"
       sodipodi:nodetypes="cccccscsccc" />
    <text
       xml:space="preserve"
       style="font-size:40px;font-style:normal;font-weight:normal;line-height:125%;letter-spacing:0px;word-spacing:0px;fill:#000000;fill-opacity:1;stroke:none;font-family:Sans"
       x="84.835976"
       y="998.15668"
       id="text7360"
       sodipodi:linespacing="125%"><tspan
         sodipodi:role="line"
         id="tspan7362"
         x="84.835976"
         y="998.15668"
         style="font-size:40px;font-style:italic;font-variant:normal;font-weight:bold;font-stretch:normal;text-align:start;line-height:125%;writing-mode:lr-tb;text-anchor:start;fill:#ffffff;font-family:Sans;-inkscape-font-specification:Sans Bold Italic">?</tspan></text>
  </g>
</svg>
